{"glyphs":{"0":{"ha":1389,"x_min":39,"x_max":1346,"o":"m 1343 424 q 1215 29 1346 196 q 983 -158 1122 -89 q 692 -232 843 -228 l 579 -215 q 464 -186 514 -206 q 168 29 281 -117 q 74 215 108 106 q 40 424 39 325 q 297 947 47 750 q 447 1028 351 990 q 608 1071 542 1067 q 650 1075 619 1071 q 692 1079 676 1079 q 1040 978 881 1078 q 1279 710 1200 879 q 1343 424 1340 578 m 1253 424 q 1188 672 1260 539 q 1024 874 1121 794 q 771 978 907 968 q 688 986 747 982 q 428 919 560 990 q 207 703 283 842 q 158 600 186 664 q 131 419 138 519 q 235 93 118 251 q 515 -110 351 -65 q 671 -136 614 -136 q 697 -135 685 -136 q 911 -93 792 -143 q 1103 38 1018 -49 q 1222 232 1188 125 q 1253 424 1244 300 m 1110 424 q 968 235 1076 318 q 747 143 860 153 q 704 140 717 140 q 453 217 569 140 q 288 419 338 294 q 431 607 321 524 q 650 699 540 690 q 904 649 786 708 q 1110 424 1050 575 m 1003 429 q 935 518 997 468 q 833 578 879 564 q 879 467 879 531 q 775 311 879 358 q 682 293 736 293 q 586 311 625 293 q 479 467 479 361 q 501 546 479 511 q 435 486 472 526 q 394 414 388 436 q 521 281 417 338 q 701 232 617 228 q 757 238 732 233 q 869 281 790 243 q 953 344 906 297 q 1003 429 1007 399 m 718 486 q 738 439 718 458 q 786 419 758 419 q 834 439 814 419 q 854 486 854 458 q 834 533 854 514 q 786 551 814 551 q 738 533 758 551 q 718 486 718 514 z "},"1":{"ha":1389,"x_min":288,"x_max":1110,"o":"m 1110 424 q 968 235 1076 318 q 747 143 860 153 q 704 140 717 140 q 453 217 569 140 q 288 419 338 294 q 431 607 321 524 q 650 699 540 690 q 904 649 786 708 q 1110 424 1050 575 m 1003 429 q 935 518 997 468 q 833 578 879 564 q 879 467 879 531 q 775 311 879 358 q 682 293 736 293 q 586 311 625 293 q 479 467 479 361 q 501 546 479 511 q 435 486 472 526 q 394 414 388 436 q 521 281 417 338 q 701 232 617 228 q 757 238 732 233 q 869 281 790 243 q 953 344 906 297 q 1003 429 1007 399 m 718 486 q 738 439 718 458 q 786 419 758 419 q 834 439 814 419 q 854 486 854 458 q 834 533 854 514 q 786 551 814 551 q 738 533 758 551 q 718 486 718 514 z "},"2":{"ha":1389,"x_min":38,"x_max":1347,"o":"m 1347 424 q 1155 -40 1347 153 q 692 -232 963 -232 q 229 -40 421 -232 q 38 424 38 153 q 230 886 38 693 q 692 1079 422 1079 q 1155 887 963 1079 q 1347 424 1347 694 m 1254 421 q 1090 821 1254 656 q 692 986 926 986 q 293 821 457 986 q 129 421 129 656 q 294 25 129 189 q 692 -139 460 -139 q 1089 25 924 -139 q 1254 421 1254 189 m 926 614 q 911 515 926 568 q 857 444 890 444 q 799 524 817 444 q 788 614 788 571 q 803 713 788 660 q 857 782 822 782 q 911 714 890 782 q 926 614 926 664 m 597 614 q 582 514 597 567 q 528 444 563 444 q 469 524 488 444 q 458 614 458 571 q 474 713 458 660 q 528 782 493 782 q 582 714 563 782 q 597 614 597 661 m 1107 290 q 943 83 1050 157 q 694 10 836 10 q 446 83 553 10 q 282 290 339 157 q 360 338 310 307 q 491 168 392 239 q 694 97 590 97 q 898 168 799 97 q 1029 338 997 239 q 1107 290 1057 321 z "},"3":{"ha":1389,"x_min":38,"x_max":1347,"o":"m 1347 424 q 1155 -40 1347 153 q 692 -232 963 -232 q 229 -40 421 -232 q 38 424 38 153 q 230 886 38 693 q 692 1079 422 1079 q 1155 887 963 1079 q 1347 424 1347 694 m 926 614 q 911 714 926 664 q 857 782 890 782 q 803 713 822 782 q 788 614 788 660 q 799 524 788 571 q 857 444 817 444 q 911 515 890 444 q 926 614 926 568 m 597 614 q 582 714 597 661 q 528 782 563 782 q 474 713 493 782 q 458 614 458 660 q 469 524 458 571 q 528 444 488 444 q 582 514 563 444 q 597 614 597 567 m 1107 290 q 1029 338 1088 303 q 898 168 997 239 q 694 97 799 97 q 491 168 590 97 q 360 338 392 239 q 282 290 333 321 q 446 83 339 157 q 694 10 553 10 q 943 83 836 10 q 1107 290 1050 157 z "},"4":{"ha":1389,"x_min":38,"x_max":1347,"o":"m 1347 424 q 1155 -40 1347 153 q 692 -232 963 -232 q 229 -40 421 -232 q 38 424 38 153 q 230 886 38 693 q 692 1079 422 1079 q 1155 887 963 1079 q 1347 424 1347 694 m 1254 421 q 1090 821 1254 656 q 692 986 926 986 q 293 821 457 986 q 129 421 129 656 q 294 25 129 189 q 692 -139 460 -139 q 1089 25 924 -139 q 1254 421 1254 189 m 926 614 q 911 515 926 568 q 857 444 890 444 q 799 524 817 444 q 788 614 788 571 q 803 713 788 660 q 857 782 822 782 q 911 714 890 782 q 926 614 926 664 m 597 614 q 582 514 597 567 q 528 444 563 444 q 469 524 488 444 q 458 614 458 571 q 474 713 458 660 q 528 782 493 782 q 582 714 563 782 q 597 614 597 661 m 1107 126 q 925 310 1047 264 q 694 338 850 338 q 464 310 539 338 q 282 126 342 264 q 360 79 310 110 q 694 250 417 250 q 1029 79 972 250 q 1107 126 1057 94 z "},"5":{"ha":1389,"x_min":38,"x_max":1347,"o":"m 1347 424 q 1155 -40 1347 153 q 692 -232 963 -232 q 229 -40 421 -232 q 38 424 38 153 q 230 886 38 693 q 692 1079 422 1079 q 1155 887 963 1079 q 1347 424 1347 694 m 926 614 q 911 714 926 664 q 857 782 890 782 q 803 713 822 782 q 788 614 788 660 q 799 524 788 571 q 857 444 817 444 q 911 515 890 444 q 926 614 926 568 m 597 614 q 582 714 597 661 q 528 782 563 782 q 474 713 493 782 q 458 614 458 660 q 469 524 458 571 q 528 444 488 444 q 582 514 563 444 q 597 614 597 567 m 1107 126 q 925 310 1047 264 q 694 338 850 338 q 464 310 539 338 q 282 126 342 264 q 360 79 310 110 q 694 250 417 250 q 1029 79 972 250 q 1107 126 1057 94 z "},"6":{"ha":1389,"x_min":38,"x_max":1347,"o":"m 1347 424 q 1155 -40 1347 153 q 692 -232 963 -232 q 229 -40 421 -232 q 38 424 38 153 q 230 886 38 693 q 692 1079 422 1079 q 1155 887 963 1079 q 1347 424 1347 694 m 1254 421 q 1090 821 1254 656 q 692 986 926 986 q 293 821 457 986 q 129 421 129 656 q 294 25 129 189 q 692 -139 460 -139 q 1089 25 924 -139 q 1254 421 1254 189 m 926 614 q 911 515 926 568 q 857 444 890 444 q 799 524 817 444 q 788 614 788 571 q 803 713 788 660 q 857 782 822 782 q 911 714 890 782 q 926 614 926 664 m 597 614 q 582 514 597 567 q 528 444 563 444 q 469 524 488 444 q 458 614 458 571 q 474 713 458 660 q 528 782 493 782 q 582 714 563 782 q 597 614 597 661 m 1106 139 l 283 139 l 283 231 l 1106 231 l 1106 139 z "},"7":{"ha":1389,"x_min":38,"x_max":1347,"o":"m 1347 424 q 1155 -40 1347 153 q 692 -232 963 -232 q 229 -40 421 -232 q 38 424 38 153 q 230 886 38 693 q 692 1079 422 1079 q 1155 887 963 1079 q 1347 424 1347 694 m 926 614 q 911 714 926 664 q 857 782 890 782 q 803 713 822 782 q 788 614 788 660 q 799 524 788 571 q 857 444 817 444 q 911 515 890 444 q 926 614 926 568 m 597 614 q 582 714 597 661 q 528 782 563 782 q 474 713 493 782 q 458 614 458 660 q 469 524 458 571 q 528 444 488 444 q 582 514 563 444 q 597 614 597 567 m 1106 139 l 1106 231 l 283 231 l 283 139 l 1106 139 z "},"8":{"ha":1389,"x_min":38,"x_max":1347,"o":"m 1347 424 q 1155 -40 1347 153 q 692 -232 963 -232 q 229 -40 421 -232 q 38 424 38 153 q 230 886 38 693 q 692 1079 422 1079 q 1155 887 963 1079 q 1347 424 1347 694 z "},"9":{"ha":1389,"x_min":38,"x_max":1347,"o":"m 1347 424 q 1155 -40 1347 153 q 692 -232 963 -232 q 229 -40 421 -232 q 38 424 38 153 q 230 886 38 693 q 692 1079 422 1079 q 1155 887 963 1079 q 1347 424 1347 694 m 1254 421 q 1090 821 1254 656 q 692 986 926 986 q 293 821 457 986 q 129 421 129 656 q 294 25 129 189 q 692 -139 460 -139 q 1089 25 924 -139 q 1254 421 1254 189 z "}," ":{"ha":694,"x_min":0,"x_max":0,"o":""},"!":{"ha":1389,"x_min":38,"x_max":1347,"o":"m 1347 424 q 1155 -40 1347 153 q 692 -232 963 -232 q 229 -40 421 -232 q 38 424 38 153 q 230 886 38 693 q 692 1079 422 1079 q 1155 887 963 1079 q 1347 424 1347 694 m 1254 421 q 1090 821 1254 656 q 692 986 926 986 q 293 821 457 986 q 129 421 129 656 q 294 25 129 189 q 692 -139 460 -139 q 1089 25 924 -139 q 1254 421 1254 189 m 1042 421 l 869 75 l 510 75 l 338 421 q 510 764 446 622 l 869 764 q 1042 421 928 636 m 935 424 l 814 671 l 565 671 l 444 424 l 571 167 l 808 167 l 935 424 z "},"\"":{"ha":1389,"x_min":38,"x_max":1347,"o":"m 1347 424 q 1155 -40 1347 153 q 692 -232 963 -232 q 229 -40 421 -232 q 38 424 38 153 q 230 886 38 693 q 692 1079 422 1079 q 1155 887 963 1079 q 1347 424 1347 694 m 1042 421 q 869 764 928 636 l 510 764 q 338 421 446 622 l 510 75 l 869 75 l 1042 421 m 935 424 l 808 167 l 571 167 l 444 424 l 565 671 l 814 671 l 935 424 z "},"#":{"ha":1389,"x_min":38,"x_max":1347,"o":"m 1347 424 q 1155 -40 1347 153 q 692 -232 963 -232 q 229 -40 421 -232 q 38 424 38 153 q 230 886 38 693 q 692 1079 422 1079 q 1155 887 963 1079 q 1347 424 1347 694 m 1042 421 q 869 764 928 636 l 510 764 q 338 421 446 622 l 510 75 l 869 75 l 1042 421 z "},"$":{"ha":1389,"x_min":38,"x_max":1347,"o":"m 1347 424 q 1155 -40 1347 153 q 692 -232 963 -232 q 229 -40 421 -232 q 38 424 38 153 q 230 886 38 693 q 692 1079 422 1079 q 1155 887 963 1079 q 1347 424 1347 694 m 1167 421 l 690 899 l 213 421 l 690 -56 l 1167 421 z "},"%":{"ha":1389,"x_min":38,"x_max":1347,"o":"m 1347 424 q 1155 -40 1347 153 q 692 -232 963 -232 q 229 -40 421 -232 q 38 424 38 153 q 230 886 38 693 q 692 1079 422 1079 q 1155 887 963 1079 q 1347 424 1347 694 m 1254 421 q 1090 821 1254 656 q 692 986 926 986 q 293 821 457 986 q 129 421 129 656 q 294 25 129 189 q 692 -139 460 -139 q 1089 25 924 -139 q 1254 421 1254 189 m 1167 421 l 690 -56 l 213 421 l 690 899 l 1167 421 z "},"&":{"ha":1389,"x_min":38,"x_max":1347,"o":"m 1347 424 q 1155 -40 1347 153 q 692 -232 963 -232 q 229 -40 421 -232 q 38 424 38 153 q 230 886 38 693 q 692 1079 422 1079 q 1155 887 963 1079 q 1347 424 1347 694 m 1254 421 q 1090 821 1254 656 q 692 986 926 986 q 293 821 457 986 q 129 421 129 656 q 294 25 129 189 q 692 -139 460 -139 q 1089 25 924 -139 q 1254 421 1254 189 m 1167 421 l 690 -56 l 213 421 l 690 899 l 1167 421 m 1036 421 l 690 767 l 343 421 l 690 75 l 1036 421 z "},"'":{"ha":1389,"x_min":38,"x_max":1347,"o":"m 1347 424 q 1155 -40 1347 153 q 692 -232 963 -232 q 229 -40 421 -232 q 38 424 38 153 q 230 886 38 693 q 692 1079 422 1079 q 1155 887 963 1079 q 1347 424 1347 694 m 1167 421 l 690 899 l 213 421 l 690 -56 l 1167 421 m 1036 421 l 690 75 l 343 421 l 690 767 l 1036 421 z "},"(":{"ha":1389,"x_min":38,"x_max":1347,"o":"m 1347 424 q 1155 -40 1347 153 q 692 -232 963 -232 q 229 -40 421 -232 q 38 424 38 153 q 230 886 38 693 q 692 1079 422 1079 q 1155 887 963 1079 q 1347 424 1347 694 m 1026 83 l 1026 758 l 353 758 l 353 83 l 1026 83 m 935 176 l 444 176 l 444 665 l 935 665 l 935 176 z "},")":{"ha":1389,"x_min":38,"x_max":1347,"o":"m 1347 424 q 1155 -40 1347 153 q 692 -232 963 -232 q 229 -40 421 -232 q 38 424 38 153 q 230 886 38 693 q 692 1079 422 1079 q 1155 887 963 1079 q 1347 424 1347 694 m 1026 83 l 1026 758 l 353 758 l 353 83 l 1026 83 z "},"*":{"ha":1389,"x_min":38,"x_max":1347,"o":"m 1347 424 q 1155 -40 1347 153 q 692 -232 963 -232 q 229 -40 421 -232 q 38 424 38 153 q 230 886 38 693 q 692 1079 422 1079 q 1155 887 963 1079 q 1347 424 1347 694 m 1254 421 q 1090 821 1254 656 q 692 986 926 986 q 293 821 457 986 q 129 421 129 656 q 294 25 129 189 q 692 -139 460 -139 q 1089 25 924 -139 q 1254 421 1254 189 m 1026 83 l 353 83 l 353 758 l 1026 758 l 1026 83 z "},"+":{"ha":1389,"x_min":38,"x_max":1347,"o":"m 1347 424 q 1155 -40 1347 153 q 692 -232 963 -232 q 229 -40 421 -232 q 38 424 38 153 q 230 886 38 693 q 692 1079 422 1079 q 1155 887 963 1079 q 1347 424 1347 694 m 1254 421 q 1090 821 1254 656 q 692 986 926 986 q 293 821 457 986 q 129 421 129 656 q 294 25 129 189 q 692 -139 460 -139 q 1089 25 924 -139 q 1254 421 1254 189 m 1026 83 l 353 83 l 353 758 l 1026 758 l 1026 83 m 935 176 l 935 665 l 444 665 l 444 176 l 935 176 z "},",":{"ha":1389,"x_min":38,"x_max":1347,"o":"m 1125 647 l 818 625 l 692 847 l 567 625 l 260 647 q 435 424 435 431 q 260 200 435 417 l 561 222 l 692 0 l 822 222 l 1125 200 l 949 424 q 1125 647 949 431 m 921 533 l 833 424 l 921 307 l 778 319 q 736 264 768 321 q 692 185 715 229 q 653 256 669 225 q 607 319 617 321 l 464 307 l 551 424 l 463 529 q 540 532 503 532 q 613 529 579 532 l 692 663 l 772 533 l 921 533 m 1347 424 q 1155 -40 1347 153 q 692 -232 963 -232 q 229 -40 421 -232 q 38 424 38 153 q 230 886 38 693 q 692 1079 422 1079 q 1155 887 963 1079 q 1347 424 1347 694 z "},"-":{"ha":1389,"x_min":38,"x_max":1347,"o":"m 1125 647 l 818 625 l 692 847 l 567 625 l 260 647 q 435 424 435 431 q 260 200 435 417 l 561 222 l 692 0 l 822 222 l 1125 200 l 949 424 q 1125 647 949 431 m 1347 424 q 1155 -40 1347 153 q 692 -232 963 -232 q 229 -40 421 -232 q 38 424 38 153 q 230 886 38 693 q 692 1079 422 1079 q 1155 887 963 1079 q 1347 424 1347 694 z "},".":{"ha":1389,"x_min":38,"x_max":1347,"o":"m 1125 647 q 949 424 949 431 q 1125 200 949 421 l 822 222 l 692 0 l 561 222 l 260 200 q 435 424 435 417 q 260 647 435 431 q 567 625 306 644 l 692 847 l 818 625 l 1125 647 m 1347 424 q 1155 -40 1347 153 q 692 -232 963 -232 q 229 -40 421 -232 q 38 424 38 153 q 230 886 38 693 q 692 1079 422 1079 q 1155 887 963 1079 q 1347 424 1347 694 m 1254 421 q 1090 821 1254 656 q 692 986 926 986 q 293 821 457 986 q 129 421 129 656 q 294 25 129 189 q 692 -139 460 -139 q 1089 25 924 -139 q 1254 421 1254 189 z "},"/":{"ha":1389,"x_min":38,"x_max":1347,"o":"m 1125 647 q 949 424 949 431 q 1125 200 949 421 l 822 222 l 692 0 l 561 222 l 260 200 q 435 424 435 417 q 260 647 435 431 q 567 625 306 644 l 692 847 l 818 625 l 1125 647 m 921 533 l 772 533 l 692 663 l 613 529 q 540 532 579 532 q 463 529 503 532 l 551 424 l 464 307 l 607 319 q 653 256 617 321 q 692 185 669 225 q 736 264 715 229 q 778 319 768 321 l 921 307 l 833 424 l 921 533 m 1347 424 q 1155 -40 1347 153 q 692 -232 963 -232 q 229 -40 421 -232 q 38 424 38 153 q 230 886 38 693 q 692 1079 422 1079 q 1155 887 963 1079 q 1347 424 1347 694 m 1254 421 q 1090 821 1254 656 q 692 986 926 986 q 293 821 457 986 q 129 421 129 656 q 294 25 129 189 q 692 -139 460 -139 q 1089 25 924 -139 q 1254 421 1254 189 z "},":":{"ha":1389,"x_min":39,"x_max":1346,"o":"m 1343 424 q 1215 29 1346 196 q 983 -158 1122 -89 q 692 -232 843 -228 l 579 -215 q 464 -186 514 -206 q 168 29 281 -117 q 74 215 108 106 q 40 424 39 325 q 297 947 47 750 q 447 1028 351 990 q 608 1071 542 1067 q 650 1075 619 1071 q 692 1079 676 1079 q 1040 978 881 1078 q 1279 710 1200 879 q 1343 424 1340 578 m 1253 424 q 1188 672 1260 539 q 1024 874 1121 794 q 771 978 907 968 q 688 986 747 982 q 428 919 560 990 q 207 703 283 842 q 158 600 186 664 q 131 419 138 519 q 235 93 118 251 q 515 -110 351 -65 q 671 -136 614 -136 q 697 -135 685 -136 q 911 -93 792 -143 q 1103 38 1018 -49 q 1222 232 1188 125 q 1253 424 1244 300 m 1101 656 q 1018 522 1083 594 q 893 424 953 450 q 1015 319 951 390 q 1101 186 1088 242 q 1025 139 1075 169 q 911 295 997 221 q 740 375 825 369 q 814 200 729 299 q 972 86 893 108 q 925 10 954 60 q 791 94 863 29 q 692 218 719 158 q 589 94 660 160 q 456 10 511 24 q 407 86 439 36 q 561 197 492 113 q 644 371 631 282 q 471 299 565 379 q 356 139 376 218 q 278 186 321 161 q 363 320 299 249 q 486 419 426 392 q 363 522 429 450 q 278 656 290 601 q 356 703 306 674 q 467 549 383 617 q 640 467 550 481 q 567 640 649 546 q 407 756 486 735 q 456 833 425 783 q 590 748 519 811 q 688 625 661 685 q 794 751 719 682 q 925 833 868 819 q 972 756 942 807 q 818 644 888 729 q 736 471 749 560 q 910 546 813 461 q 1025 703 1003 625 q 1101 656 1051 688 z "},";":{"ha":1389,"x_min":39,"x_max":1346,"o":"m 1343 424 q 1215 29 1346 196 q 983 -158 1122 -89 q 692 -232 843 -228 l 579 -215 q 464 -186 514 -206 q 168 29 281 -117 q 74 215 108 106 q 40 424 39 325 q 297 947 47 750 q 447 1028 351 990 q 608 1071 542 1067 q 650 1075 619 1071 q 692 1079 676 1079 q 1040 978 881 1078 q 1279 710 1200 879 q 1343 424 1340 578 m 1101 656 q 1025 703 1085 667 q 910 546 1003 625 q 736 471 813 461 q 818 644 749 560 q 972 756 888 729 q 925 833 956 783 q 794 751 868 819 q 688 625 719 682 q 590 748 661 685 q 456 833 519 811 q 407 756 438 806 q 567 640 486 735 q 640 467 649 546 q 467 549 550 481 q 356 703 383 617 q 278 656 329 686 q 363 522 290 601 q 486 419 429 450 q 363 320 426 392 q 278 186 299 249 q 356 139 321 161 q 471 299 376 218 q 644 371 565 379 q 561 197 631 282 q 407 86 492 113 q 456 10 425 60 q 589 94 511 24 q 692 218 660 160 q 791 94 719 158 q 925 10 863 29 q 972 86 942 36 q 814 200 893 108 q 740 375 729 299 q 911 295 825 369 q 1025 139 997 221 q 1101 186 1051 156 q 1015 319 1088 242 q 893 424 951 390 q 1018 522 953 450 q 1101 656 1083 594 z "},"<":{"ha":1389,"x_min":39,"x_max":1346,"o":"m 1343 424 q 1215 29 1346 196 q 983 -158 1122 -89 q 692 -232 843 -228 l 579 -215 q 464 -186 514 -206 q 168 29 281 -117 q 74 215 108 106 q 40 424 39 325 q 297 947 47 750 q 447 1028 351 990 q 608 1071 542 1067 q 650 1075 619 1071 q 692 1079 676 1079 q 1040 978 881 1078 q 1279 710 1200 879 q 1343 424 1340 578 m 1253 424 q 1188 672 1260 539 q 1024 874 1121 794 q 771 978 907 968 q 688 986 747 982 q 428 919 560 990 q 207 703 283 842 q 158 600 186 664 q 131 419 138 519 q 235 93 118 251 q 515 -110 351 -65 q 671 -136 614 -136 q 697 -135 685 -136 q 911 -93 792 -143 q 1103 38 1018 -49 q 1222 232 1188 125 q 1253 424 1244 300 m 1107 563 q 1018 424 1064 469 q 1067 353 1043 388 q 1106 279 1100 301 q 1029 232 1079 263 q 996 296 1006 278 q 947 361 971 339 q 814 301 885 311 q 754 169 807 240 q 885 86 794 125 q 836 10 867 60 q 696 97 746 47 q 553 10 594 25 q 504 86 536 35 q 635 169 601 128 q 575 301 581 246 q 442 361 503 311 q 360 232 396 315 q 282 279 319 257 q 371 419 321 369 q 282 563 301 515 q 360 611 310 581 q 442 482 407 507 q 575 540 517 536 q 635 674 578 596 q 504 756 618 696 q 553 833 522 783 q 692 746 649 790 q 836 833 747 783 q 885 756 854 807 q 815 721 826 726 q 754 674 778 699 q 814 540 814 592 q 947 482 876 531 q 1029 611 972 503 q 1107 563 1057 594 m 713 561 q 692 588 703 582 q 676 561 676 556 l 713 561 m 861 424 q 835 439 832 439 l 835 403 q 861 424 856 414 m 740 375 l 740 467 l 649 467 l 649 375 l 740 375 m 554 403 l 554 439 q 528 418 533 429 q 554 403 556 404 m 713 282 l 676 282 q 697 254 686 260 q 713 282 713 285 z "},"=":{"ha":1389,"x_min":39,"x_max":1346,"o":"m 1343 424 q 1215 29 1346 196 q 983 -158 1122 -89 q 692 -232 843 -228 l 579 -215 q 464 -186 514 -206 q 168 29 281 -117 q 74 215 108 106 q 40 424 39 325 q 297 947 47 750 q 447 1028 351 990 q 608 1071 542 1067 q 650 1075 619 1071 q 692 1079 676 1079 q 1040 978 881 1078 q 1279 710 1200 879 q 1343 424 1340 578 m 1107 563 q 1029 611 1085 578 q 993 542 997 550 q 947 482 968 499 q 814 540 876 531 q 754 674 814 592 q 885 756 783 706 q 836 833 867 783 q 692 746 807 824 q 553 833 649 790 q 504 756 535 807 q 575 719 539 738 q 635 674 621 693 q 575 540 578 596 q 442 482 517 536 q 360 611 407 507 q 282 563 333 594 q 371 419 301 515 q 282 279 321 369 q 360 232 319 257 q 442 361 396 315 q 575 301 503 311 q 635 169 581 246 q 504 86 601 128 q 553 10 522 60 q 696 97 594 25 q 836 10 746 47 q 885 86 853 36 q 754 169 794 125 q 814 301 807 240 q 947 361 885 311 q 1029 232 979 331 q 1106 279 1056 249 q 1018 424 1101 301 q 1107 563 1064 469 m 713 561 l 676 561 q 692 588 676 556 q 713 561 703 582 m 861 424 q 835 403 856 414 l 835 439 q 861 424 832 439 m 740 375 l 649 375 l 649 467 l 740 467 l 740 375 m 554 403 q 528 418 553 406 q 554 439 533 429 l 554 403 m 713 282 q 697 254 710 281 q 676 282 686 260 l 713 282 z "},">":{"ha":1389,"x_min":38,"x_max":1347,"o":"m 1107 514 l 1107 328 l 915 328 l 1051 192 l 919 60 l 783 196 l 783 4 l 596 4 l 596 192 l 463 58 l 329 192 l 461 325 l 272 325 l 272 514 l 460 514 l 326 649 l 461 782 l 593 650 l 593 839 l 783 839 l 783 646 l 919 782 l 1051 650 l 915 514 l 1107 514 m 1347 424 q 1155 -40 1347 153 q 692 -232 963 -232 q 229 -40 421 -232 q 38 424 38 153 q 230 886 38 693 q 692 1079 422 1079 q 1155 887 963 1079 q 1347 424 1347 694 m 1254 421 q 1090 821 1254 656 q 692 986 926 986 q 293 821 457 986 q 129 421 129 656 q 294 25 129 189 q 692 -139 460 -139 q 1089 25 924 -139 q 1254 421 1254 189 z "},"?":{"ha":1389,"x_min":272,"x_max":1107,"o":"m 1107 514 l 1107 328 l 915 328 l 1051 192 l 919 60 l 783 196 l 783 4 l 596 4 l 596 192 l 463 58 l 329 192 l 461 325 l 272 325 l 272 514 l 460 514 l 326 649 l 461 782 l 593 650 l 593 839 l 783 839 l 783 646 l 919 782 l 1051 650 l 915 514 l 1107 514 z "},"@":{"ha":1389,"x_min":38,"x_max":1347,"o":"m 1107 514 l 915 514 l 1051 650 l 919 782 l 783 646 l 783 839 l 593 839 l 593 650 l 461 782 l 326 649 l 460 514 l 272 514 l 272 325 l 461 325 l 329 192 l 463 58 l 596 192 l 596 4 l 783 4 l 783 196 l 919 60 l 1051 192 l 915 328 l 1107 328 l 1107 514 m 1347 424 q 1155 -40 1347 153 q 692 -232 963 -232 q 229 -40 421 -232 q 38 424 38 153 q 230 886 38 693 q 692 1079 422 1079 q 1155 887 963 1079 q 1347 424 1347 694 z "},"A":{"ha":1389,"x_min":38,"x_max":1347,"o":"m 1347 424 q 1155 -40 1347 153 q 692 -232 963 -232 q 229 -40 421 -232 q 38 424 38 153 q 230 886 38 693 q 692 1079 422 1079 q 1155 887 963 1079 q 1347 424 1347 694 m 1213 635 q 1032 867 1176 754 q 765 981 888 981 l 732 981 l 843 635 l 1213 635 m 1254 421 q 1239 546 1254 410 q 940 332 1117 465 l 1053 -4 q 1200 186 1143 64 q 1254 421 1254 304 m 639 981 l 618 981 q 352 867 496 981 q 172 635 208 753 l 532 635 q 639 981 574 786 m 1065 540 l 794 540 q 736 660 779 540 q 688 810 704 749 q 636 651 671 757 q 576 540 599 540 l 306 540 q 428 450 346 511 q 528 343 528 374 q 450 97 528 318 q 569 182 500 133 q 685 254 672 254 q 801 182 699 254 q 921 97 871 133 q 843 343 843 333 q 949 456 843 375 q 1065 540 978 478 m 972 -58 l 685 149 q 403 -58 646 121 q 692 -139 558 -139 q 838 -117 754 -139 q 972 -58 931 -92 m 431 332 l 144 542 l 129 421 q 181 196 129 307 q 318 4 232 85 l 431 332 z "},"B":{"ha":1389,"x_min":115,"x_max":1260,"o":"m 1260 583 q 1228 540 1260 565 q 1179 508 1203 525 q 1032 403 1124 469 q 940 331 940 338 q 998 155 940 296 q 1056 -21 1056 14 q 1042 -56 1056 -39 q 1011 -74 1029 -74 q 838 38 986 -74 q 685 149 690 149 q 530 38 678 149 q 358 -74 382 -74 q 328 -56 340 -74 q 315 -21 315 -39 q 373 155 315 14 q 431 331 431 296 q 410 350 431 336 q 376 372 394 360 q 122 556 282 436 q 115 586 115 561 q 126 618 115 603 q 151 633 136 633 l 533 633 q 640 979 583 824 q 685 1010 651 1010 q 743 947 717 1010 q 797 792 767 890 q 846 633 833 668 l 1219 633 q 1249 610 1238 633 q 1260 583 1260 592 m 1065 540 l 794 540 q 736 660 779 540 q 688 810 704 749 q 636 651 671 757 q 576 540 599 540 l 306 540 q 428 450 346 511 q 528 343 528 374 q 450 97 528 318 q 569 182 500 133 q 685 254 672 254 q 801 182 699 254 q 921 97 871 133 q 843 343 843 333 q 949 456 843 375 q 1065 540 978 478 z "},"C":{"ha":1389,"x_min":38,"x_max":1347,"o":"m 1347 424 q 1155 -40 1347 153 q 692 -232 963 -232 q 229 -40 421 -232 q 38 424 38 153 q 230 886 38 693 q 692 1079 422 1079 q 1155 887 963 1079 q 1347 424 1347 694 m 1213 635 q 1032 867 1176 754 q 765 981 888 981 l 732 981 l 843 635 l 1213 635 m 1254 421 q 1239 546 1254 410 q 940 332 1117 465 l 1053 -4 q 1200 186 1143 64 q 1254 421 1254 304 m 639 981 l 618 981 q 352 867 496 981 q 172 635 208 753 l 532 635 q 639 981 574 786 m 972 -58 l 685 149 q 403 -58 646 121 q 692 -139 558 -139 q 838 -117 754 -139 q 972 -58 931 -92 m 431 332 l 144 542 l 129 421 q 181 196 129 307 q 318 4 232 85 l 431 332 z "},"D":{"ha":1389,"x_min":115,"x_max":1260,"o":"m 1260 583 q 1228 540 1260 565 q 1179 508 1203 525 q 1032 403 1124 469 q 940 331 940 338 q 998 155 940 296 q 1056 -21 1056 14 q 1042 -56 1056 -39 q 1011 -74 1029 -74 q 838 38 986 -74 q 685 149 690 149 q 530 38 678 149 q 358 -74 382 -74 q 328 -56 340 -74 q 315 -21 315 -39 q 373 155 315 14 q 431 331 431 296 q 410 350 431 336 q 376 372 394 360 q 122 556 282 436 q 115 586 115 561 q 126 618 115 603 q 151 633 136 633 l 533 633 q 640 979 583 824 q 685 1010 651 1010 q 743 947 717 1010 q 797 792 767 890 q 846 633 833 668 l 1219 633 q 1249 610 1238 633 q 1260 583 1260 592 z "},"E":{"ha":1389,"x_min":38,"x_max":1347,"o":"m 1347 424 q 1155 -40 1347 153 q 692 -232 963 -232 q 229 -40 421 -232 q 38 424 38 153 q 230 886 38 693 q 692 1079 422 1079 q 1155 887 963 1079 q 1347 424 1347 694 m 1254 421 q 1090 821 1254 656 q 692 986 926 986 q 293 821 457 986 q 129 421 129 656 q 294 25 129 189 q 692 -139 460 -139 q 1089 25 924 -139 q 1254 421 1254 189 m 1051 192 l 919 60 l 692 288 l 461 60 l 329 192 l 556 419 l 329 650 l 461 782 l 688 556 l 919 782 l 1051 650 l 824 424 l 1051 192 z "},"F":{"ha":1389,"x_min":38,"x_max":1347,"o":"m 1347 424 q 1155 -40 1347 153 q 692 -232 963 -232 q 229 -40 421 -232 q 38 424 38 153 q 230 886 38 693 q 692 1079 422 1079 q 1155 887 963 1079 q 1347 424 1347 694 m 1051 192 l 824 424 l 1051 650 l 919 782 l 688 556 l 461 782 l 329 650 l 556 419 l 329 192 l 461 60 l 692 288 l 919 60 l 1051 192 z "},"G":{"ha":1389,"x_min":329,"x_max":1051,"o":"m 1051 192 l 919 60 l 692 288 l 461 60 l 329 192 l 556 419 l 329 650 l 461 782 l 688 556 l 919 782 l 1051 650 l 824 424 l 1051 192 z "},"H":{"ha":1389,"x_min":269,"x_max":1110,"o":"m 919 1 l 692 228 l 460 1 l 269 192 l 497 419 l 269 650 l 461 842 l 688 614 l 919 840 l 1110 650 l 882 424 l 1110 192 l 919 1 m 919 119 l 992 193 l 765 424 l 992 650 l 918 724 l 688 497 l 461 724 l 388 650 l 614 418 l 388 192 l 461 119 l 692 346 l 919 119 z "},"I":{"ha":1389,"x_min":38,"x_max":1347,"o":"m 1347 424 q 1155 -40 1347 153 q 692 -232 963 -232 q 229 -40 421 -232 q 38 424 38 153 q 230 886 38 693 q 692 1079 422 1079 q 1155 887 963 1079 q 1347 424 1347 694 m 1254 421 q 1090 821 1254 656 q 692 986 926 986 q 293 821 457 986 q 129 421 129 656 q 294 25 129 189 q 692 -139 460 -139 q 1089 25 924 -139 q 1254 421 1254 189 m 919 1 l 692 228 l 460 1 l 269 192 l 497 419 l 269 650 l 461 842 l 688 614 l 919 840 l 1110 650 l 882 424 l 1110 192 l 919 1 m 919 119 l 992 193 l 765 424 l 992 650 l 918 724 l 688 497 l 461 724 l 388 650 l 614 418 l 388 192 l 461 119 l 692 346 l 919 119 z "},"J":{"ha":1389,"x_min":38,"x_max":1347,"o":"m 1347 424 q 1155 -40 1347 153 q 692 -232 963 -232 q 229 -40 421 -232 q 38 424 38 153 q 230 886 38 693 q 692 1079 422 1079 q 1155 887 963 1079 q 1347 424 1347 694 m 1254 421 q 1090 821 1254 656 q 692 986 926 986 q 293 821 457 986 q 129 421 129 656 q 294 25 129 189 q 692 -139 460 -139 q 1089 25 924 -139 q 1254 421 1254 189 m 1111 164 l 269 164 l 692 782 l 1111 164 m 939 256 q 688 621 856 381 l 440 256 l 939 256 z "},"K":{"ha":1389,"x_min":38,"x_max":1347,"o":"m 1347 424 q 1155 -40 1347 153 q 692 -232 963 -232 q 229 -40 421 -232 q 38 424 38 153 q 230 886 38 693 q 692 1079 422 1079 q 1155 887 963 1079 q 1347 424 1347 694 m 1254 421 q 1090 821 1254 656 q 692 986 926 986 q 293 821 457 986 q 129 421 129 656 q 294 25 129 189 q 692 -139 460 -139 q 1089 25 924 -139 q 1254 421 1254 189 m 1111 164 l 269 164 l 692 782 l 1111 164 z "},"L":{"ha":1389,"x_min":38,"x_max":1347,"o":"m 1347 424 q 1155 -40 1347 153 q 692 -232 963 -232 q 229 -40 421 -232 q 38 424 38 153 q 230 886 38 693 q 692 1079 422 1079 q 1155 887 963 1079 q 1347 424 1347 694 m 1111 164 l 692 782 l 269 164 l 1111 164 z "},"M":{"ha":1389,"x_min":38,"x_max":1347,"o":"m 1347 424 q 1155 -40 1347 153 q 692 -232 963 -232 q 229 -40 421 -232 q 38 424 38 153 q 230 886 38 693 q 692 1079 422 1079 q 1155 887 963 1079 q 1347 424 1347 694 m 1254 421 q 1090 821 1254 656 q 692 986 926 986 q 293 821 457 986 q 129 421 129 656 q 294 25 129 189 q 692 -139 460 -139 q 1089 25 924 -139 q 1254 421 1254 189 m 1106 367 l 867 367 l 867 14 l 519 14 l 519 367 l 278 367 l 692 889 l 1106 367 m 917 458 q 692 740 842 556 l 468 458 l 611 458 l 611 107 l 775 107 l 775 458 l 917 458 z "},"N":{"ha":1389,"x_min":38,"x_max":1347,"o":"m 1347 424 q 1155 -40 1347 153 q 692 -232 963 -232 q 229 -40 421 -232 q 38 424 38 153 q 230 886 38 693 q 692 1079 422 1079 q 1155 887 963 1079 q 1347 424 1347 694 m 1254 421 q 1090 821 1254 656 q 692 986 926 986 q 293 821 457 986 q 129 421 129 656 q 294 25 129 189 q 692 -139 460 -139 q 1089 25 924 -139 q 1254 421 1254 189 m 1106 367 l 867 367 l 867 14 l 519 14 l 519 367 l 278 367 l 692 889 l 1106 367 z "},"O":{"ha":1389,"x_min":38,"x_max":1347,"o":"m 1347 424 q 1155 -40 1347 153 q 692 -232 963 -232 q 229 -40 421 -232 q 38 424 38 153 q 230 886 38 693 q 692 1079 422 1079 q 1155 887 963 1079 q 1347 424 1347 694 m 1106 367 l 692 889 l 278 367 l 519 367 l 519 14 l 867 14 l 867 367 l 1106 367 z "},"P":{"ha":1389,"x_min":38,"x_max":1347,"o":"m 1347 424 q 1155 -40 1347 153 q 692 -232 963 -232 q 229 -40 421 -232 q 38 424 38 153 q 230 886 38 693 q 692 1079 422 1079 q 1155 887 963 1079 q 1347 424 1347 694 m 1254 421 q 1090 821 1254 656 q 692 986 926 986 q 293 821 457 986 q 129 421 129 656 q 294 25 129 189 q 692 -139 460 -139 q 1089 25 924 -139 q 1254 421 1254 189 m 778 865 l 778 626 l 1129 626 l 1129 279 l 778 279 l 778 38 l 256 451 l 778 865 m 685 676 q 403 451 588 601 l 685 228 l 685 371 l 1036 371 l 1036 535 l 685 535 l 685 676 z "},"Q":{"ha":1389,"x_min":38,"x_max":1347,"o":"m 1347 424 q 1155 -40 1347 153 q 692 -232 963 -232 q 229 -40 421 -232 q 38 424 38 153 q 230 886 38 693 q 692 1079 422 1079 q 1155 887 963 1079 q 1347 424 1347 694 m 1254 421 q 1090 821 1254 656 q 692 986 926 986 q 293 821 457 986 q 129 421 129 656 q 294 25 129 189 q 692 -139 460 -139 q 1089 25 924 -139 q 1254 421 1254 189 m 778 865 l 778 626 l 1129 626 l 1129 279 l 778 279 l 778 38 l 256 451 l 778 865 z "},"R":{"ha":1389,"x_min":38,"x_max":1347,"o":"m 1347 424 q 1155 -40 1347 153 q 692 -232 963 -232 q 229 -40 421 -232 q 38 424 38 153 q 230 886 38 693 q 692 1079 422 1079 q 1155 887 963 1079 q 1347 424 1347 694 m 778 865 l 256 451 l 778 38 l 778 279 l 1129 279 l 1129 626 l 778 626 l 778 865 z "},"S":{"ha":1389,"x_min":38,"x_max":1347,"o":"m 1347 424 q 1155 -40 1347 153 q 692 -232 963 -232 q 229 -40 421 -232 q 38 424 38 153 q 230 886 38 693 q 692 1079 422 1079 q 1155 887 963 1079 q 1347 424 1347 694 m 1254 421 q 1090 821 1254 656 q 692 986 926 986 q 293 821 457 986 q 129 421 129 656 q 294 25 129 189 q 692 -139 460 -139 q 1089 25 924 -139 q 1254 421 1254 189 m 278 538 l 517 538 l 517 889 l 865 889 l 865 538 l 1106 538 l 692 14 l 278 538 m 468 444 q 692 163 543 347 l 917 444 l 772 444 l 772 796 l 610 796 l 610 444 l 468 444 z "},"T":{"ha":1389,"x_min":38,"x_max":1347,"o":"m 1347 424 q 1155 -40 1347 153 q 692 -232 963 -232 q 229 -40 421 -232 q 38 424 38 153 q 230 886 38 693 q 692 1079 422 1079 q 1155 887 963 1079 q 1347 424 1347 694 m 1254 421 q 1090 821 1254 656 q 692 986 926 986 q 293 821 457 986 q 129 421 129 656 q 294 25 129 189 q 692 -139 460 -139 q 1089 25 924 -139 q 1254 421 1254 189 m 278 468 l 517 468 l 517 819 l 865 819 l 865 468 l 1106 468 l 692 -56 l 278 468 z "},"U":{"ha":1389,"x_min":38,"x_max":1347,"o":"m 1347 424 q 1155 -40 1347 153 q 692 -232 963 -232 q 229 -40 421 -232 q 38 424 38 153 q 230 886 38 693 q 692 1079 422 1079 q 1155 887 963 1079 q 1347 424 1347 694 m 278 468 l 692 -56 l 1106 468 l 865 468 l 865 819 l 517 819 l 517 468 l 278 468 z "},"V":{"ha":1389,"x_min":38,"x_max":1347,"o":"m 1347 424 q 1155 -40 1347 153 q 692 -232 963 -232 q 229 -40 421 -232 q 38 424 38 153 q 230 886 38 693 q 692 1079 422 1079 q 1155 887 963 1079 q 1347 424 1347 694 m 1254 421 q 1090 821 1254 656 q 692 986 926 986 q 293 821 457 986 q 129 421 129 656 q 294 25 129 189 q 692 -139 460 -139 q 1089 25 924 -139 q 1254 421 1254 189 m 607 38 l 607 276 l 256 276 l 256 625 l 607 625 l 607 865 l 1129 451 l 607 38 m 699 228 q 981 451 796 303 l 699 676 l 699 532 l 347 532 l 347 369 l 699 369 l 699 228 z "},"W":{"ha":1389,"x_min":38,"x_max":1347,"o":"m 1347 424 q 1155 -40 1347 153 q 692 -232 963 -232 q 229 -40 421 -232 q 38 424 38 153 q 230 886 38 693 q 692 1079 422 1079 q 1155 887 963 1079 q 1347 424 1347 694 m 1254 421 q 1090 821 1254 656 q 692 986 926 986 q 293 821 457 986 q 129 421 129 656 q 294 25 129 189 q 692 -139 460 -139 q 1089 25 924 -139 q 1254 421 1254 189 m 607 38 l 607 276 l 256 276 l 256 625 l 607 625 l 607 865 l 1129 451 l 607 38 z "},"X":{"ha":1389,"x_min":38,"x_max":1347,"o":"m 1347 424 q 1155 -40 1347 153 q 692 -232 963 -232 q 229 -40 421 -232 q 38 424 38 153 q 230 886 38 693 q 692 1079 422 1079 q 1155 887 963 1079 q 1347 424 1347 694 m 607 38 l 1129 451 l 607 865 l 607 625 l 256 625 l 256 276 l 607 276 l 607 38 z "},"Y":{"ha":1389,"x_min":38,"x_max":1347,"o":"m 1347 424 q 1155 -40 1347 153 q 692 -232 963 -232 q 229 -40 421 -232 q 38 424 38 153 q 230 886 38 693 q 692 1079 422 1079 q 1155 887 963 1079 q 1347 424 1347 694 m 1254 421 q 1090 821 1254 656 q 692 986 926 986 q 293 821 457 986 q 129 421 129 656 q 294 25 129 189 q 692 -139 460 -139 q 1089 25 924 -139 q 1254 421 1254 189 m 1085 424 q 969 146 1085 261 q 692 31 854 31 q 414 146 529 31 q 299 424 299 261 q 414 701 299 586 q 692 817 529 817 q 969 701 854 817 q 1085 424 1085 586 z "},"Z":{"ha":1389,"x_min":38,"x_max":1347,"o":"m 1347 424 q 1155 -40 1347 153 q 692 -232 963 -232 q 229 -40 421 -232 q 38 424 38 153 q 230 886 38 693 q 692 1079 422 1079 q 1155 887 963 1079 q 1347 424 1347 694 m 1254 421 q 1090 821 1254 656 q 692 986 926 986 q 293 821 457 986 q 129 421 129 656 q 294 25 129 189 q 692 -139 460 -139 q 1089 25 924 -139 q 1254 421 1254 189 m 1085 424 q 969 146 1085 261 q 692 31 854 31 q 414 146 529 31 q 299 424 299 261 q 414 701 299 586 q 692 817 529 817 q 969 701 854 817 q 1085 424 1085 586 m 928 424 q 858 590 928 521 q 692 660 789 660 q 526 590 594 660 q 457 424 457 521 q 526 257 457 326 q 692 188 594 188 q 858 257 789 188 q 928 424 928 326 z "},"[":{"ha":1389,"x_min":38,"x_max":1347,"o":"m 1347 424 q 1155 -40 1347 153 q 692 -232 963 -232 q 229 -40 421 -232 q 38 424 38 153 q 230 886 38 693 q 692 1079 422 1079 q 1155 887 963 1079 q 1347 424 1347 694 m 783 665 l 935 665 l 935 514 l 783 514 l 783 665 m 444 514 l 444 665 l 593 665 l 593 514 l 444 514 m 596 176 l 444 176 l 444 325 l 596 325 l 596 176 m 935 328 l 935 176 l 783 176 l 783 328 l 935 328 m 1107 514 l 1026 514 l 1026 758 l 783 758 l 783 839 l 593 839 l 593 758 l 353 758 l 353 514 l 272 514 l 272 325 l 353 325 l 353 83 l 596 83 l 596 4 l 783 4 l 783 83 l 1026 83 l 1026 328 l 1107 328 l 1107 514 z "},"\\":{"ha":1389,"x_min":38,"x_max":1347,"o":"m 1347 424 q 1155 -40 1347 153 q 692 -232 963 -232 q 229 -40 421 -232 q 38 424 38 153 q 230 886 38 693 q 692 1079 422 1079 q 1155 887 963 1079 q 1347 424 1347 694 m 1254 421 q 1090 821 1254 656 q 692 986 926 986 q 293 821 457 986 q 129 421 129 656 q 294 25 129 189 q 692 -139 460 -139 q 1089 25 924 -139 q 1254 421 1254 189 m 783 665 l 783 514 l 935 514 l 935 665 l 783 665 m 444 514 l 593 514 l 593 665 l 444 665 l 444 514 m 596 176 l 596 325 l 444 325 l 444 176 l 596 176 m 935 328 l 783 328 l 783 176 l 935 176 l 935 328 m 1107 514 l 1107 328 l 1026 328 l 1026 83 l 783 83 l 783 4 l 596 4 l 596 83 l 353 83 l 353 325 l 272 325 l 272 514 l 353 514 l 353 758 l 593 758 l 593 839 l 783 839 l 783 758 l 1026 758 l 1026 514 l 1107 514 z "},"]":{"ha":1389,"x_min":38,"x_max":1347,"o":"m 999 853 l 779 521 l 1111 740 l 901 431 l 1111 122 l 783 339 l 999 10 l 690 222 l 381 10 l 593 335 l 269 122 l 481 431 l 269 740 l 597 525 l 381 853 l 690 643 l 999 853 m 1347 424 q 1155 -40 1347 153 q 692 -232 963 -232 q 229 -40 421 -232 q 38 424 38 153 q 230 886 38 693 q 692 1079 422 1079 q 1155 887 963 1079 q 1347 424 1347 694 m 1254 421 q 1090 821 1254 656 q 692 986 926 986 q 293 821 457 986 q 129 421 129 656 q 294 25 129 189 q 692 -139 460 -139 q 1089 25 924 -139 q 1254 421 1254 189 z "},"^":{"ha":1389,"x_min":38,"x_max":1347,"o":"m 999 853 l 690 643 l 381 853 l 597 525 l 269 740 l 481 431 l 269 122 l 593 335 l 381 10 l 690 222 l 999 10 l 783 339 l 1111 122 l 901 431 l 1111 740 l 779 521 l 999 853 m 1347 424 q 1155 -40 1347 153 q 692 -232 963 -232 q 229 -40 421 -232 q 38 424 38 153 q 230 886 38 693 q 692 1079 422 1079 q 1155 887 963 1079 q 1347 424 1347 694 z "},"_":{"ha":1389,"x_min":38,"x_max":1347,"o":"m 1347 424 q 1155 -40 1347 153 q 692 -232 963 -232 q 229 -40 421 -232 q 38 424 38 153 q 230 886 38 693 q 692 1079 422 1079 q 1155 887 963 1079 q 1347 424 1347 694 m 1254 421 q 1090 821 1254 656 q 692 986 926 986 q 293 821 457 986 q 129 421 129 656 q 294 25 129 189 q 692 -139 460 -139 q 1089 25 924 -139 q 1254 421 1254 189 m 1149 147 l 808 303 l 964 -37 l 415 -37 l 571 300 l 231 144 l 231 694 l 568 539 l 413 881 l 964 881 l 808 539 l 1149 694 l 1149 147 z "},"`":{"ha":1389,"x_min":231,"x_max":1149,"o":"m 1149 147 l 808 303 l 964 -37 l 415 -37 l 571 300 l 231 144 l 231 694 l 568 539 l 413 881 l 964 881 l 808 539 l 1149 694 l 1149 147 z "},"a":{"ha":1389,"x_min":38,"x_max":1347,"o":"m 1347 424 q 1155 -40 1347 153 q 692 -232 963 -232 q 229 -40 421 -232 q 38 424 38 153 q 230 886 38 693 q 692 1079 422 1079 q 1155 887 963 1079 q 1347 424 1347 694 m 1254 421 q 1090 821 1254 656 q 692 986 926 986 q 293 821 457 986 q 129 421 129 656 q 294 25 129 189 q 692 -139 460 -139 q 1089 25 924 -139 q 1254 421 1254 189 m 1107 514 l 1107 328 l 783 328 l 783 4 l 596 4 l 596 325 l 272 325 l 272 514 l 593 514 l 593 839 l 783 839 l 783 514 l 1107 514 z "},"b":{"ha":1389,"x_min":38,"x_max":1347,"o":"m 1347 424 q 1155 -40 1347 153 q 692 -232 963 -232 q 229 -40 421 -232 q 38 424 38 153 q 230 886 38 693 q 692 1079 422 1079 q 1155 887 963 1079 q 1347 424 1347 694 m 1107 514 l 783 514 l 783 839 l 593 839 l 593 514 l 272 514 l 272 325 l 596 325 l 596 4 l 783 4 l 783 328 l 1107 328 l 1107 514 z "},"c":{"ha":1389,"x_min":272,"x_max":1107,"o":"m 1107 514 l 1107 328 l 783 328 l 783 4 l 596 4 l 596 325 l 272 325 l 272 514 l 593 514 l 593 839 l 783 839 l 783 514 l 1107 514 z "},"d":{"ha":1389,"x_min":231,"x_max":1149,"o":"m 1149 286 l 825 286 l 825 -37 l 554 -37 l 554 283 l 231 283 l 231 556 l 551 556 l 551 881 l 825 881 l 825 556 l 1149 556 l 1149 286 m 1065 369 l 1065 472 l 742 472 l 742 797 l 635 797 l 635 472 l 314 472 l 314 367 l 638 367 l 638 46 l 742 46 l 742 369 l 1065 369 z "},"e":{"ha":1389,"x_min":38,"x_max":1347,"o":"m 1347 424 q 1155 -40 1347 153 q 692 -232 963 -232 q 229 -40 421 -232 q 38 424 38 153 q 230 886 38 693 q 692 1079 422 1079 q 1155 887 963 1079 q 1347 424 1347 694 m 1254 421 q 1090 821 1254 656 q 692 986 926 986 q 293 821 457 986 q 129 421 129 656 q 294 25 129 189 q 692 -139 460 -139 q 1089 25 924 -139 q 1254 421 1254 189 m 1149 286 l 825 286 l 825 -37 l 554 -37 l 554 283 l 231 283 l 231 556 l 551 556 l 551 881 l 825 881 l 825 556 l 1149 556 l 1149 286 m 1065 369 l 1065 472 l 742 472 l 742 797 l 635 797 l 635 472 l 314 472 l 314 367 l 638 367 l 638 46 l 742 46 l 742 369 l 1065 369 z "},"f":{"ha":1389,"x_min":135,"x_max":1250,"o":"m 1250 464 l 1250 499 q 1240 538 1250 506 q 1228 582 1229 575 q 1086 819 1204 697 q 854 960 968 940 q 807 972 846 961 q 765 981 775 981 l 742 981 l 742 464 l 1250 464 m 1250 349 l 1250 369 l 742 369 l 742 -133 l 765 -133 q 791 -128 771 -135 q 817 -122 811 -122 q 1076 14 943 -108 q 1228 261 1210 136 q 1240 307 1229 272 q 1250 349 1250 338 m 647 464 l 647 981 l 618 981 q 328 848 482 981 q 156 582 174 715 q 144 538 154 571 q 135 497 135 506 l 135 464 l 647 464 m 647 -133 l 647 369 l 135 369 q 263 65 140 218 q 535 -112 389 -92 q 578 -124 540 -114 q 618 -133 615 -135 l 647 -133 z "},"g":{"ha":1389,"x_min":135,"x_max":1250,"o":"m 1250 464 l 1250 499 q 1240 538 1250 506 q 1228 582 1229 575 q 1086 819 1204 697 q 854 960 968 940 q 807 972 846 961 q 765 981 775 981 l 742 981 l 742 464 l 1250 464 m 1250 349 l 1250 369 l 742 369 l 742 -133 l 765 -133 q 791 -128 771 -135 q 817 -122 811 -122 q 1077 15 943 -108 q 1228 261 1211 138 q 1240 307 1229 272 q 1250 349 1250 338 m 647 -133 l 647 369 l 135 369 q 263 65 140 218 q 535 -112 389 -92 q 578 -124 540 -114 q 618 -133 615 -135 l 647 -133 z "},"h":{"ha":1389,"x_min":742,"x_max":1250,"o":"m 1250 464 l 1250 499 q 1240 538 1250 506 q 1228 582 1229 575 q 1086 819 1204 697 q 854 960 968 940 q 807 972 846 961 q 765 981 775 981 l 742 981 l 742 464 l 1250 464 m 1250 349 l 1250 369 l 742 369 l 742 -133 l 765 -133 q 791 -128 771 -135 q 817 -122 811 -122 q 1077 15 943 -108 q 1228 261 1211 138 q 1240 307 1229 272 q 1250 349 1250 338 z "},"i":{"ha":1389,"x_min":742,"x_max":1250,"o":"m 1250 464 l 1250 499 q 1240 538 1250 506 q 1228 582 1229 575 q 1086 819 1204 697 q 854 960 968 940 q 807 972 846 961 q 765 981 775 981 l 742 981 l 742 464 l 1250 464 z "},"j":{"ha":1389,"x_min":38,"x_max":1347,"o":"m 1347 424 q 1155 -40 1347 153 q 692 -232 963 -232 q 229 -40 421 -232 q 38 424 38 153 q 230 886 38 693 q 692 1079 422 1079 q 1155 887 963 1079 q 1347 424 1347 694 m 1250 464 l 1250 499 q 1240 538 1250 506 q 1228 582 1229 575 q 1086 819 1204 697 q 854 960 968 940 q 807 972 846 961 q 765 981 775 981 l 742 981 l 742 464 l 1250 464 m 1250 349 l 1250 369 l 742 369 l 742 -133 l 765 -133 q 791 -128 771 -135 q 817 -122 811 -122 q 1076 14 943 -108 q 1228 261 1210 136 q 1240 307 1229 272 q 1250 349 1250 338 m 647 464 l 647 981 l 618 981 q 328 848 482 981 q 156 582 174 715 q 144 538 154 571 q 135 497 135 506 l 135 464 l 647 464 m 647 -133 l 647 369 l 135 369 q 263 65 140 218 q 535 -112 389 -92 q 578 -124 540 -114 q 618 -133 615 -135 l 647 -133 z "},"k":{"ha":1389,"x_min":38,"x_max":1347,"o":"m 1347 424 q 1155 -40 1347 153 q 692 -232 963 -232 q 229 -40 421 -232 q 38 424 38 153 q 230 886 38 693 q 692 1079 422 1079 q 1155 887 963 1079 q 1347 424 1347 694 m 1250 464 l 1250 499 q 1240 538 1250 506 q 1228 582 1229 575 q 1086 819 1204 697 q 854 960 968 940 q 807 972 846 961 q 765 981 775 981 l 742 981 l 742 464 l 1250 464 m 1250 349 l 1250 369 l 742 369 l 742 -133 l 765 -133 q 791 -128 771 -135 q 817 -122 811 -122 q 1076 14 943 -108 q 1228 261 1210 136 q 1240 307 1229 272 q 1250 349 1250 338 m 647 -133 l 647 369 l 135 369 q 263 65 140 218 q 535 -112 389 -92 q 578 -124 540 -114 q 618 -133 615 -135 l 647 -133 z "},"l":{"ha":1389,"x_min":38,"x_max":1347,"o":"m 1347 424 q 1155 -40 1347 153 q 692 -232 963 -232 q 229 -40 421 -232 q 38 424 38 153 q 230 886 38 693 q 692 1079 422 1079 q 1155 887 963 1079 q 1347 424 1347 694 m 1250 464 l 1250 499 q 1240 538 1250 506 q 1228 582 1229 575 q 1086 819 1204 697 q 854 960 968 940 q 807 972 846 961 q 765 981 775 981 l 742 981 l 742 464 l 1250 464 m 1250 349 l 1250 369 l 742 369 l 742 -133 l 765 -133 q 791 -128 771 -135 q 817 -122 811 -122 q 1076 14 943 -108 q 1228 261 1210 136 q 1240 307 1229 272 q 1250 349 1250 338 z "},"m":{"ha":1389,"x_min":38,"x_max":1347,"o":"m 1347 424 q 1155 -40 1347 153 q 692 -232 963 -232 q 229 -40 421 -232 q 38 424 38 153 q 230 886 38 693 q 692 1079 422 1079 q 1155 887 963 1079 q 1347 424 1347 694 m 1250 464 l 1250 499 q 1240 538 1250 506 q 1228 582 1229 575 q 1086 819 1204 697 q 854 960 968 940 q 807 972 846 961 q 765 981 775 981 l 742 981 l 742 464 l 1250 464 z "},"n":{"ha":1389,"x_min":38,"x_max":1347,"o":"m 1347 424 q 1155 -40 1347 153 q 692 -232 963 -232 q 229 -40 421 -232 q 38 424 38 153 q 230 886 38 693 q 692 1079 422 1079 q 1155 887 963 1079 q 1347 424 1347 694 m 1250 464 l 1250 499 q 1240 538 1250 506 q 1228 582 1229 575 q 1086 819 1204 697 q 854 960 968 940 q 807 972 846 961 q 765 981 775 981 l 742 981 l 742 464 l 1250 464 m 647 -133 l 647 369 l 135 369 q 263 65 140 218 q 535 -112 389 -92 q 578 -124 540 -114 q 618 -133 615 -135 l 647 -133 z "},"o":{"ha":1389,"x_min":38,"x_max":1347,"o":"m 1347 424 q 1155 -40 1347 153 q 692 -232 963 -232 q 229 -40 421 -232 q 38 424 38 153 q 230 886 38 693 q 692 1079 422 1079 q 1155 887 963 1079 q 1347 424 1347 694 m 1250 349 l 1250 369 l 742 369 l 742 -133 l 765 -133 q 791 -128 771 -135 q 817 -122 811 -122 q 1076 14 943 -108 q 1228 261 1210 136 q 1240 307 1229 272 q 1250 349 1250 338 m 647 464 l 647 981 l 618 981 q 328 848 482 981 q 156 582 174 715 q 144 538 154 571 q 135 497 135 506 l 135 464 l 647 464 z "},"p":{"ha":1389,"x_min":135,"x_max":1250,"o":"m 1250 349 l 1250 369 l 742 369 l 742 -133 l 765 -133 q 791 -128 771 -135 q 817 -122 811 -122 q 1077 15 943 -108 q 1228 261 1211 138 q 1240 307 1229 272 q 1250 349 1250 338 m 647 464 l 647 981 l 618 981 q 328 848 482 981 q 156 582 174 715 q 144 538 154 571 q 135 497 135 506 l 135 464 l 647 464 z "},"q":{"ha":1389,"x_min":135,"x_max":1250,"o":"m 1250 464 l 1250 499 q 1240 538 1250 506 q 1228 582 1229 575 q 1086 819 1204 697 q 854 960 968 940 q 807 972 846 961 q 765 981 775 981 l 742 981 l 742 464 l 1250 464 m 647 -133 l 647 369 l 135 369 q 263 65 140 218 q 535 -112 389 -92 q 578 -124 540 -114 q 618 -133 615 -135 l 647 -133 z "},"r":{"ha":1389,"x_min":38,"x_max":1347,"o":"m 1347 424 q 1155 -40 1347 153 q 692 -232 963 -232 q 229 -40 421 -232 q 38 424 38 153 q 230 886 38 693 q 692 1079 422 1079 q 1155 887 963 1079 q 1347 424 1347 694 m 1254 421 q 1090 821 1254 656 q 692 986 926 986 q 293 821 457 986 q 129 421 129 656 q 294 25 129 189 q 692 -139 460 -139 q 1089 25 924 -139 q 1254 421 1254 189 m 1115 606 l 692 185 l 274 601 l 690 413 l 1115 606 z "},"s":{"ha":1389,"x_min":38,"x_max":1347,"o":"m 1347 424 q 1155 -40 1347 153 q 692 -232 963 -232 q 229 -40 421 -232 q 38 424 38 153 q 230 886 38 693 q 692 1079 422 1079 q 1155 887 963 1079 q 1347 424 1347 694 m 1115 606 l 690 413 l 274 601 l 692 185 l 1115 606 z "},"t":{"ha":1389,"x_min":38,"x_max":1347,"o":"m 1347 424 q 1155 -40 1347 153 q 692 -232 963 -232 q 229 -40 421 -232 q 38 424 38 153 q 230 886 38 693 q 692 1079 422 1079 q 1155 887 963 1079 q 1347 424 1347 694 m 1254 421 q 1090 821 1254 656 q 692 986 926 986 q 293 821 457 986 q 129 421 129 656 q 294 25 129 189 q 692 -139 460 -139 q 1089 25 924 -139 q 1254 421 1254 189 m 485 817 l 904 393 l 489 -25 l 678 390 l 485 817 z "},"u":{"ha":1389,"x_min":38,"x_max":1347,"o":"m 1347 424 q 1155 -40 1347 153 q 692 -232 963 -232 q 229 -40 421 -232 q 38 424 38 153 q 230 886 38 693 q 692 1079 422 1079 q 1155 887 963 1079 q 1347 424 1347 694 m 485 817 l 678 390 l 489 -25 l 904 393 l 485 817 z "},"v":{"ha":1389,"x_min":38,"x_max":1347,"o":"m 1347 424 q 1155 -40 1347 153 q 692 -232 963 -232 q 229 -40 421 -232 q 38 424 38 153 q 230 886 38 693 q 692 1079 422 1079 q 1155 887 963 1079 q 1347 424 1347 694 m 1254 421 q 1090 821 1254 656 q 692 986 926 986 q 293 821 457 986 q 129 421 129 656 q 294 25 129 189 q 692 -139 460 -139 q 1089 25 924 -139 q 1254 421 1254 189 m 274 185 l 697 606 l 1115 190 l 699 379 l 274 185 z "},"w":{"ha":1389,"x_min":38,"x_max":1347,"o":"m 1347 424 q 1155 -40 1347 153 q 692 -232 963 -232 q 229 -40 421 -232 q 38 424 38 153 q 230 886 38 693 q 692 1079 422 1079 q 1155 887 963 1079 q 1347 424 1347 694 m 274 185 l 699 379 l 1115 190 l 697 606 l 274 185 z "},"x":{"ha":1389,"x_min":38,"x_max":1347,"o":"m 1347 424 q 1155 -40 1347 153 q 692 -232 963 -232 q 229 -40 421 -232 q 38 424 38 153 q 230 886 38 693 q 692 1079 422 1079 q 1155 887 963 1079 q 1347 424 1347 694 m 1254 421 q 1090 821 1254 656 q 692 986 926 986 q 293 821 457 986 q 129 421 129 656 q 294 25 129 189 q 692 -139 460 -139 q 1089 25 924 -139 q 1254 421 1254 189 m 904 -25 l 485 397 l 900 817 l 711 400 l 904 -25 z "},"y":{"ha":1389,"x_min":38,"x_max":1347,"o":"m 1347 424 q 1155 -40 1347 153 q 692 -232 963 -232 q 229 -40 421 -232 q 38 424 38 153 q 230 886 38 693 q 692 1079 422 1079 q 1155 887 963 1079 q 1347 424 1347 694 m 904 -25 l 711 400 l 900 817 l 485 397 l 904 -25 z "},"z":{"ha":1389,"x_min":39,"x_max":1346,"o":"m 1343 424 q 1215 29 1346 196 q 983 -158 1122 -89 q 692 -232 843 -228 l 579 -215 q 464 -186 514 -206 q 168 29 281 -117 q 74 215 108 106 q 40 424 39 325 q 297 947 47 750 q 447 1028 351 990 q 608 1071 542 1067 q 650 1075 619 1071 q 692 1079 676 1079 q 1040 978 881 1078 q 1279 710 1200 879 q 1343 424 1340 578 m 1253 424 q 1188 672 1260 539 q 1024 874 1121 794 q 771 978 907 968 q 688 986 747 982 q 428 919 560 990 q 207 703 283 842 q 158 600 186 664 q 131 419 138 519 q 235 93 118 251 q 515 -110 351 -65 q 671 -136 614 -136 q 697 -135 685 -136 q 911 -93 792 -143 q 1103 38 1018 -49 q 1222 232 1188 125 q 1253 424 1244 300 m 1085 507 q 828 57 1075 263 q 701 8 769 8 q 421 199 558 8 q 294 507 293 375 q 365 682 296 597 q 526 772 438 772 q 689 667 629 772 q 703 679 694 667 q 842 767 757 767 q 1010 683 933 767 q 1085 507 1088 599 z "},"{":{"ha":1389,"x_min":39,"x_max":1346,"o":"m 1343 424 q 1215 29 1346 196 q 983 -158 1122 -89 q 692 -232 843 -228 l 579 -215 q 464 -186 514 -206 q 168 29 281 -117 q 74 215 108 106 q 40 424 39 325 q 297 947 47 750 q 447 1028 351 990 q 608 1071 542 1067 q 650 1075 619 1071 q 692 1079 676 1079 q 1040 978 881 1078 q 1279 710 1200 879 q 1343 424 1340 578 m 1085 507 q 1010 683 1088 599 q 842 767 933 767 q 703 679 757 767 q 689 667 694 667 q 526 772 629 772 q 365 682 438 772 q 294 507 296 597 q 421 199 293 375 q 701 8 558 8 q 828 57 769 8 q 1085 507 1075 263 z "},"|":{"ha":1389,"x_min":38,"x_max":1347,"o":"m 1347 424 q 1155 -40 1347 153 q 692 -232 963 -232 q 229 -40 421 -232 q 38 424 38 153 q 230 886 38 693 q 692 1079 422 1079 q 1155 887 963 1079 q 1347 424 1347 694 m 1254 421 q 1090 821 1254 656 q 692 986 926 986 q 293 821 457 986 q 129 421 129 656 q 294 25 129 189 q 692 -139 460 -139 q 1089 25 924 -139 q 1254 421 1254 189 m 1093 551 l 939 61 l 446 61 l 292 551 l 692 861 l 1093 551 m 986 521 l 692 740 l 399 521 q 510 153 440 392 l 874 153 q 986 521 910 276 z "},"}":{"ha":1389,"x_min":38,"x_max":1347,"o":"m 1347 424 q 1155 -40 1347 153 q 692 -232 963 -232 q 229 -40 421 -232 q 38 424 38 153 q 230 886 38 693 q 692 1079 422 1079 q 1155 887 963 1079 q 1347 424 1347 694 m 1093 551 l 692 861 l 292 551 l 446 61 l 939 61 l 1093 551 m 986 521 q 874 153 949 400 l 510 153 q 399 521 504 179 l 692 740 l 986 521 z "},"~":{"ha":1389,"x_min":38,"x_max":1347,"o":"m 1347 424 q 1155 -40 1347 153 q 692 -232 963 -232 q 229 -40 421 -232 q 38 424 38 153 q 230 886 38 693 q 692 1079 422 1079 q 1155 887 963 1079 q 1347 424 1347 694 m 1093 551 l 692 861 l 292 551 l 446 61 l 939 61 l 1093 551 z "}}}
